<?xml version="1.0" encoding="UTF-8"?>
<svg version="1.1" xmlns="http://www.w3.org/2000/svg" width="594" height="349">
<path d="M0 0 C196.02 0 392.04 0 594 0 C594 115.17 594 230.34 594 349 C397.98 349 201.96 349 0 349 C0 233.83 0 118.66 0 0 Z " fill="#262525" transform="translate(0,0)"/>
<path d="M0 0 C13.64315665 9.80187953 23.51628356 21.08232751 32.74609375 35.05078125 C33.37991219 36.00538742 33.37991219 36.00538742 34.02653503 36.97927856 C36.96605073 41.40975189 39.89372937 45.84806066 42.82321167 50.28517151 C45.00184214 53.58290521 47.18429138 56.87810207 49.36743164 60.17285156 C50.47336152 61.84432299 51.57721684 63.51716897 52.67895508 65.19140625 C60.02010781 76.34219298 67.67487992 87.12522302 75.90919495 97.63540649 C77.6178338 99.82359027 79.29410318 102.03574476 80.96875 104.25 C85.82097931 110.46277996 91.12181316 116.32658363 96.78125 121.8125 C99.21875 124.3125 99.21875 124.3125 99.21875 126.3125 C99.79109375 126.56773437 100.3634375 126.82296875 100.953125 127.0859375 C103.46179003 128.44407685 105.32541849 130.0564643 107.46875 131.9375 C111.89370383 135.54472764 116.44772967 138.21520038 121.53125 140.75 C122.2128418 141.0917627 122.89443359 141.43352539 123.59667969 141.78564453 C132.92963449 146.30062783 144.25559857 146.84320125 154.34375 144.375 C165.02316535 140.59640288 174.19586958 132.00235519 182.21875 124.3125 C183.085 123.4875 183.95125 122.6625 184.84375 121.8125 C185.6275 120.9875 186.41125 120.1625 187.21875 119.3125 C187.76402344 118.76207031 188.30929687 118.21164063 188.87109375 117.64453125 C198.61028343 107.34767836 206.15772526 94.70811258 212.9140625 82.3046875 C213.55988281 81.31855469 213.55988281 81.31855469 214.21875 80.3125 C214.87875 80.3125 215.53875 80.3125 216.21875 80.3125 C216.32316406 79.36761719 216.42757812 78.42273438 216.53515625 77.44921875 C217.23949049 72.53125754 218.70380682 67.86546804 220.15625 63.125 C220.55360352 61.79178711 220.55360352 61.79178711 220.95898438 60.43164062 C222.14103481 56.52764776 223.38309315 52.95726494 225.21875 49.3125 C229.00621839 33.14768393 226.91560148 15.35190125 220.21875 0.3125 C219.42658081 -0.47966919 219.42658081 -0.47966919 218.6184082 -1.2878418 C218.156521 -1.749729 217.69463379 -2.21161621 217.21875 -2.6875 C217.21875 -3.3475 217.21875 -4.0075 217.21875 -4.6875 C232.94820782 0.11170684 243.86101858 11.83942523 251.5625 25.85546875 C265.95049521 55.88701535 257.79449523 89.3384128 247.50170898 119.40722656 C245.80848092 124.07531914 243.77719683 128.51172896 241.53125 132.9375 C241.18239746 133.62626221 240.83354492 134.31502441 240.47412109 135.0246582 C225.08464809 165.13675008 204.56821643 188.30325045 171.84375 199.6875 C152.71698585 205.8704721 130.263403 205.6835003 111.21875 199.3125 C110.56052246 199.10351074 109.90229492 198.89452148 109.22412109 198.67919922 C86.34079374 191.31261084 65.42112425 176.94076141 50.21875 158.3125 C49.60362549 157.56589111 49.60362549 157.56589111 48.97607422 156.80419922 C43.14086009 149.69049493 37.90798633 142.50267297 33.2109375 134.5703125 C30.32681902 129.85393051 27.12306978 125.38829807 23.90625 120.89453125 C22.21875 118.3125 22.21875 118.3125 22.21875 116.3125 C21.55875 116.3125 20.89875 116.3125 20.21875 116.3125 C19.65285156 115.28253906 19.08695312 114.25257813 18.50390625 113.19140625 C16.47857214 109.6517372 14.17366373 106.46416086 11.65625 103.25 C11.00825439 102.42145508 11.00825439 102.42145508 10.34716797 101.57617188 C9.43447292 100.40996864 8.52005807 99.24510948 7.60400391 98.08154297 C6.23726803 96.33614851 4.88822448 94.57839077 3.54296875 92.81640625 C-10.18059081 73.58587444 -10.18059081 73.58587444 -28.78125 60.3125 C-34.00130432 60.47696746 -37.22864436 62.68249829 -41.15625 65.875 C-41.72569336 66.3275415 -42.29513672 66.78008301 -42.88183594 67.24633789 C-50.75622037 73.59480882 -57.19256732 80.78337922 -63.48486328 88.68652344 C-64.91978922 90.48626105 -66.36379613 92.27849128 -67.80859375 94.0703125 C-77.12886632 104.45799052 -77.12886632 104.45799052 -83.78125 116.3125 C-84.44125 116.3125 -85.10125 116.3125 -85.78125 116.3125 C-86.04808594 117.04726562 -86.31492188 117.78203125 -86.58984375 118.5390625 C-87.76179686 121.26721563 -89.07957529 123.3102433 -90.84375 125.6875 C-93.38293381 129.21211654 -95.67153186 132.78494482 -97.82641602 136.55712891 C-115.76191426 167.78914507 -144.75386972 192.81156776 -179.78125 202.375 C-182.44097386 203.0694365 -185.0998508 203.70179997 -187.78125 204.3125 C-188.9559082 204.58078613 -188.9559082 204.58078613 -190.15429688 204.85449219 C-214.44739117 209.08997963 -241.16552564 203.72947035 -261.64941406 190.06640625 C-265.49840499 187.31204407 -269.1460213 184.34100029 -272.78125 181.3125 C-273.79251953 180.52939453 -273.79251953 180.52939453 -274.82421875 179.73046875 C-280.32345056 175.36380184 -284.49876075 169.83446188 -288.78125 164.3125 C-289.45285156 163.4565625 -290.12445313 162.600625 -290.81640625 161.71875 C-298.17472641 152.00518223 -304.68975683 141.17978679 -308.89453125 129.70703125 C-309.89615008 127.00221918 -311.05766283 124.3901336 -312.21875 121.75 C-315.39094204 114.11143941 -317.70408033 106.30825003 -319.78125 98.3125 C-319.98169922 97.55469238 -320.18214844 96.79688477 -320.38867188 96.01611328 C-326.59935403 71.77918072 -326.65099171 45.25025431 -313.734375 23.1796875 C-307.54961827 14.10046463 -299.34010222 5.8353924 -289.78125 0.3125 C-288.46125 0.3125 -287.14125 0.3125 -285.78125 0.3125 C-286.25865513 3.03119658 -286.86251824 5.55108267 -287.75390625 8.16796875 C-293.48152642 25.67929493 -292.66389714 45.92554928 -286.78125 63.3125 C-286.52923828 64.05967285 -286.27722656 64.8068457 -286.01757812 65.57666016 C-282.5831559 75.48253865 -278.3193093 84.3923169 -272.78125 93.3125 C-272.0030419 94.78780004 -271.23177344 96.26678953 -270.46875 97.75 C-259.38134671 117.72892475 -238.80908608 139.96988797 -216.78125 147.3125 C-200.20837888 149.24863225 -187.32650747 145.64955325 -174.09375 135.6875 C-163.4177489 127.17864643 -154.08546574 117.11359142 -145.78125 106.3125 C-145.07935547 105.40129395 -145.07935547 105.40129395 -144.36328125 104.47167969 C-138.39313613 96.69437624 -132.6517244 88.85643163 -127.40234375 80.5703125 C-125.78125 78.3125 -125.78125 78.3125 -122.78125 76.3125 C-122.03866727 74.63289785 -121.30263245 72.94962086 -120.62158203 71.24414062 C-119.18913985 67.95143796 -117.19993668 65.04691324 -115.21875 62.0625 C-114.75694336 61.35867187 -114.29513672 60.65484375 -113.81933594 59.9296875 C-112.14629331 57.38640581 -110.46343653 54.84974261 -108.78125 52.3125 C-107.67872341 50.63990714 -106.57620984 48.96730566 -105.47401428 47.29449463 C-103.89217822 44.89609632 -102.30619439 42.50046213 -100.71902466 40.10559082 C-99.93687026 38.92483329 -99.15565652 37.74345202 -98.37545776 36.56140137 C-82.9263229 13.17780476 -65.88587174 -4.88678072 -37.56640625 -11.171875 C-24.01407904 -13.68086124 -11.20505242 -7.32211346 0 0 Z " fill="#FC0000" transform="translate(329.78125,137.6875)"/>
<path d="M0 0 C9.86572487 10.14814066 10.5632752 26.35027241 10.48144531 39.63793945 C10.20552474 50.28327754 7.32896756 59.57204954 3.73046875 69.50390625 C3.28316406 70.74011719 2.83585938 71.97632813 2.375 73.25 C1.73691406 74.99023438 1.73691406 74.99023438 1.0859375 76.765625 C0.16074423 79.5212366 -0.51612073 82.13973587 -1 85 C-1.66 85 -2.32 85 -3 85 C-3.20625 85.804375 -3.4125 86.60875 -3.625 87.4375 C-5.43927014 92.138109 -8.14251585 95.87462553 -11 100 C-12.31401332 101.99900606 -13.62644611 103.99905174 -14.9375 106 C-27.27871936 124.48836664 -43.90988988 143.57989959 -65.796875 150.57421875 C-79.82592076 153.28550596 -92.21116298 149.48977395 -104 142 C-109.43181518 138.05380948 -114.28444639 133.77228207 -119 129 C-119.99153175 128.03964115 -120.9851156 127.08139764 -121.98046875 126.125 C-128.84450222 119.47097035 -134.927068 112.69109246 -140.56933594 104.953125 C-142.26116554 102.64346001 -143.9780658 100.35332631 -145.6953125 98.0625 C-146.98506043 96.33384452 -148.27412535 94.60467924 -149.5625 92.875 C-150.18310303 92.04468262 -150.80370605 91.21436523 -151.44311523 90.35888672 C-152.02005127 89.57787598 -152.5969873 88.79686523 -153.19140625 87.9921875 C-153.96786499 86.94587158 -153.96786499 86.94587158 -154.76000977 85.87841797 C-156 84 -156 84 -157 81 C-152.37241981 75.67614038 -147.74894963 70.58315377 -142.3515625 66.03515625 C-139.21337159 63.31921362 -136.21082658 60.46747845 -133.1875 57.625 C-128.16235034 52.9192681 -123.01023268 48.47147266 -117.6328125 44.16796875 C-114.89030846 41.90967537 -112.2906241 39.54218666 -109.6875 37.125 C-84.98824518 14.49571114 -34.74498271 -21.84775789 0 0 Z " fill="#890000" transform="translate(547,133)"/>
<path d="M0 0 C6.55202002 4.27305653 12.65564511 9.01168001 18.6796875 13.9921875 C19.52917969 14.67925781 20.37867188 15.36632812 21.25390625 16.07421875 C27.0876143 20.80079973 32.80622258 25.64908369 38.48950195 30.55419922 C41.98078453 33.56062116 45.51786346 36.48986754 49.1171875 39.3671875 C55.0637365 44.19324433 60.62805327 49.41099323 66.19921875 54.66015625 C66.78396973 55.20978027 67.3687207 55.7594043 67.97119141 56.32568359 C69.12079958 57.44703618 70.23793555 58.60255862 71.32177734 59.78759766 C73.01798483 61.68600598 73.01798483 61.68600598 75.6796875 63.9921875 C77.97956735 63.6774844 79.60513183 63.02946533 81.6796875 61.9921875 C80.6896875 63.9721875 80.6896875 63.9721875 79.6796875 65.9921875 C79.0196875 65.9921875 78.3596875 65.9921875 77.6796875 65.9921875 C77.463125 66.6625 77.2465625 67.3328125 77.0234375 68.0234375 C75.24780249 71.94635206 72.79924976 75.09320748 70.1796875 78.4921875 C69.64214844 79.19706299 69.10460937 79.90193848 68.55078125 80.62817383 C67.45145464 82.06844113 66.34989857 83.50700953 65.24609375 84.94384766 C63.84468573 86.77642454 62.46121828 88.62044621 61.0859375 90.47265625 C55.49971238 97.95055478 49.46832098 104.84757885 43.01806641 111.58642578 C41.86277729 112.79987976 40.7281715 114.03296391 39.59765625 115.26953125 C29.1252761 126.40332488 14.79317995 135.84337867 -0.72119141 136.75146484 C-15.24990445 137.04897184 -25.48906089 131.53932165 -36.3203125 121.9921875 C-37.27679688 121.15558594 -38.23328125 120.31898438 -39.21875 119.45703125 C-63.96981389 97.46611931 -86.0549072 64.95272664 -88.53857422 31.00927734 C-88.65939794 27.77110129 -88.6995978 24.54508651 -88.6953125 21.3046875 C-88.69515137 20.16362549 -88.69499023 19.02256348 -88.69482422 17.84692383 C-88.54821795 6.97259688 -86.44428471 -1.9579523 -82.3203125 -12.0078125 C-82.9803125 -12.3378125 -83.6403125 -12.6678125 -84.3203125 -13.0078125 C-82.23812201 -13.82323681 -80.15451489 -14.63504439 -78.0703125 -15.4453125 C-76.91015625 -15.89777344 -75.75 -16.35023438 -74.5546875 -16.81640625 C-50.00995611 -25.85764185 -20.98301128 -12.68855035 0 0 Z " fill="#890000" transform="translate(126.3203125,150.0078125)"/>
<path d="M0 0 C18.16062269 7.41249906 31.07200706 29.03684426 42.49365234 44.18505859 C43.57983265 45.61470581 44.68013783 47.03369013 45.79150391 48.44384766 C46.34112793 49.14944824 46.89075195 49.85504883 47.45703125 50.58203125 C47.9569458 51.21471924 48.45686035 51.84740723 48.97192383 52.49926758 C50.0625 54.25 50.0625 54.25 50.0625 57.25 C50.7225 57.25 51.3825 57.25 52.0625 57.25 C53.73801173 59.51013273 55.28859422 61.76537676 56.8125 64.125 C57.26423584 64.81247314 57.71597168 65.49994629 58.18139648 66.20825195 C60.59197413 69.89911129 62.91000327 73.62520986 65.125 77.4375 C70.67549929 86.84989597 77.65198204 95.25390978 85.0625 103.25 C68.75028507 116.47147947 47.06106659 123.93663477 27.0625 129.25 C25.82886719 129.59289062 24.59523438 129.93578125 23.32421875 130.2890625 C4.56950892 134.67540993 -18.34901794 134.04702763 -36.9375 129.25 C-37.61312988 129.08371094 -38.28875977 128.91742188 -38.98486328 128.74609375 C-53.60129118 125.0978982 -67.07671091 118.92586997 -80.375 111.9375 C-80.99584473 111.61225342 -81.61668945 111.28700684 -82.25634766 110.9519043 C-85.21644179 109.3522239 -87.73354741 107.81732828 -89.9375 105.25 C-89.40382812 104.69054687 -88.87015625 104.13109375 -88.3203125 103.5546875 C-78.94713056 93.46797614 -71.50559725 82.54657031 -64.82421875 70.5390625 C-62.17970587 65.92895931 -59.39344785 61.30373342 -55.9375 57.25 C-55.2775 57.25 -54.6175 57.25 -53.9375 57.25 C-53.82519043 56.66532959 -53.71288086 56.08065918 -53.59716797 55.47827148 C-52.87422869 53.03627784 -51.93294665 51.60729636 -50.3828125 49.59765625 C-49.8559082 48.91002197 -49.32900391 48.2223877 -48.78613281 47.51391602 C-48.21733398 46.78744873 -47.64853516 46.06098145 -47.0625 45.3125 C-46.47823242 44.55831787 -45.89396484 43.80413574 -45.29199219 43.02709961 C-40.02500416 36.27189453 -34.56644414 29.70521118 -28.9375 23.25 C-28.15632813 22.34507812 -27.37515625 21.44015625 -26.5703125 20.5078125 C-9.24716048 0.78699238 -9.24716048 0.78699238 0 0 Z " fill="#8A0000" transform="translate(299.9375,196.75)"/>
<path d="M0 0 C2.48494572 2.48494572 1.18553802 9.16463864 1.1875 12.5 C1.19974609 13.56476563 1.21199219 14.62953125 1.22460938 15.7265625 C1.24512791 26.86128486 -1.51139936 36.13146223 -5.26953125 46.50390625 C-5.71683594 47.74011719 -6.16414062 48.97632813 -6.625 50.25 C-7.05039062 51.41015625 -7.47578125 52.5703125 -7.9140625 53.765625 C-8.83925577 56.5212366 -9.51612073 59.13973587 -10 62 C-10.66 62 -11.32 62 -12 62 C-12.20625 62.804375 -12.4125 63.60875 -12.625 64.4375 C-14.43927014 69.138109 -17.14251585 72.87462553 -20 77 C-21.31401332 78.99900606 -22.62644611 80.99905174 -23.9375 83 C-36.27871936 101.48836664 -52.90988988 120.57989959 -74.796875 127.57421875 C-88.81869344 130.28410919 -101.21999822 126.49636477 -113 119 C-116.45417554 116.46693794 -119.77648004 113.82057996 -123 111 C-123.6084375 110.50886719 -124.216875 110.01773438 -124.84375 109.51171875 C-125.2253125 109.01285156 -125.606875 108.51398438 -126 108 C-125.54637394 104.90793669 -124.44786596 102.94706912 -122.55859375 100.49609375 C-122.06085449 99.84253906 -121.56311523 99.18898438 -121.05029297 98.515625 C-120.51807129 97.82984375 -119.98584961 97.1440625 -119.4375 96.4375 C-118.34419228 95.00977258 -117.25174787 93.58138366 -116.16015625 92.15234375 C-115.62277832 91.45093262 -115.08540039 90.74952148 -114.53173828 90.02685547 C-111.76636224 86.3676027 -109.14611602 82.60624239 -106.5234375 78.84375 C-106.02070313 78.2353125 -105.51796875 77.626875 -105 77 C-104.34 77 -103.68 77 -103 77 C-102.75378906 76.43539062 -102.50757813 75.87078125 -102.25390625 75.2890625 C-100.78145746 72.60104072 -99.01695721 70.62682844 -96.9375 68.375 C-96.22464844 67.59898437 -95.51179688 66.82296875 -94.77734375 66.0234375 C-94.15122192 65.34631714 -94.15122192 65.34631714 -93.51245117 64.65551758 C-92.35204602 63.3853469 -91.20333168 62.10448747 -90.05981445 60.8190918 C-76.92870953 46.07081984 -63.11361807 31.5097272 -47 20 C-45.72382813 19.04867187 -45.72382813 19.04867187 -44.421875 18.078125 C-31.46287776 8.63059798 -16.54657447 -0.63640671 0 0 Z " fill="#262424" transform="translate(556,156)"/>
<path d="M0 0 C5.92201313 0.44859867 11.15458044 1.40209365 16.6875 3.5625 C17.37465088 3.82861084 18.06180176 4.09472168 18.76977539 4.36889648 C32.78015199 9.98304647 44.34101501 18.60764636 56 28 C56.58185059 28.46325684 57.16370117 28.92651367 57.76318359 29.40380859 C66.110289 36.09577832 73.72956992 43.5284194 81.3125 51.0625 C82.23184326 51.97249756 83.15118652 52.88249512 84.09838867 53.82006836 C90.15833322 59.90848134 95.640537 66.29318969 101 73 C102.79461051 75.14098289 104.61676183 77.25601298 106.4375 79.375 C110.22100467 83.82210013 113.91350281 88.32980578 117.5 92.9375 C118.2940625 93.95714844 119.088125 94.97679687 119.90625 96.02734375 C124.97571992 103.22485607 124.97571992 103.22485607 125.03515625 107.5703125 C123.59916426 110.94082954 121.30867744 112.75072379 118.4375 114.875 C117.56847046 115.51864502 117.56847046 115.51864502 116.68188477 116.17529297 C104.45114487 124.88577607 92.48628034 129.07968233 77.32861328 127.41357422 C67.60634536 125.68684725 59.25651041 119.39620247 52 113 C51.04351562 112.16339844 50.08703125 111.32679688 49.1015625 110.46484375 C24.63944826 88.73065881 4.30811788 58.05869713 0 25 C-0.21517907 20.6199105 -0.19126813 16.25889143 -0.125 11.875 C-0.11597656 10.72773438 -0.10695312 9.58046875 -0.09765625 8.3984375 C-0.07432538 5.59873252 -0.04159232 2.79948305 0 0 Z " fill="#262424" transform="translate(38,159)"/>
<path d="M0 0 C7.72672324 6.4411679 14.21396093 14.89422818 16 25 C16.30241856 28.9412553 16.32473347 32.86109066 16.3125 36.8125 C16.32861328 37.84181641 16.34472656 38.87113281 16.36132812 39.93164062 C16.37071815 54.77727446 10.89042156 63.63585707 0.91796875 74.20703125 C-9.06018983 83.53488214 -22.47532119 87.71760022 -36 87.27734375 C-50.05142309 85.97831896 -61.57538164 80.03316076 -70.6640625 69.1796875 C-80.32372241 56.03091966 -83.10148522 44.32453584 -81 28 C-79.27706888 18.09261624 -75.01784522 10.20825188 -68 3 C-67.47921875 2.44054688 -66.9584375 1.88109375 -66.421875 1.3046875 C-47.95336474 -16.51089563 -19.41418561 -14.6279457 0 0 Z " fill="#FDFDFD" transform="translate(330,16)"/>
<path d="M0 0 C14.22727161 -0.46903093 25.66606381 4.03032784 36.3515625 13.4375 C46.2468906 23.04178904 50.85599619 32.97477625 51.23120117 46.74389648 C51.29608551 62.32911496 47.42550598 73.22748274 36.7421875 84.9453125 C25.85994824 95.30669244 12.3017747 98.74261049 -2.34375 98.5078125 C-14.68940351 97.50613676 -24.92018755 92.34150324 -33.1953125 83.1953125 C-33.73800781 82.6796875 -34.28070313 82.1640625 -34.83984375 81.6328125 C-42.79722923 73.58874526 -47.31577251 61.23030714 -47.3828125 50.0078125 C-47.24836577 36.63783163 -42.75031192 24.00110028 -33.3125 14.25 C-23.31358847 5.1921625 -13.42396078 0.8205355 0 0 Z " fill="#FDFDFD" transform="translate(114.1953125,4.8046875)"/>
<path d="M0 0 C5.3720294 4.53139887 10.2633848 9.43212351 13 16 C13.36996094 16.83015625 13.73992187 17.6603125 14.12109375 18.515625 C16.95260884 26.00101438 17.36244932 32.9279088 17.375 40.875 C17.37661133 41.86177734 17.37822266 42.84855469 17.37988281 43.86523438 C17.18716535 56.48180422 17.18716535 56.48180422 13.5546875 60.6640625 C13.04164063 61.10492188 12.52859375 61.54578125 12 62 C11.01344889 63.43939425 10.05664572 64.89947462 9.125 66.375 C6.71022137 70.03859797 4.31266325 73.08170142 1 76 C0.46117187 76.48082031 -0.07765625 76.96164063 -0.6328125 77.45703125 C-11.90980329 86.77588347 -25.82513971 88.9892724 -40 88 C-52.69090987 85.47701672 -63.38730839 78.37510292 -71 68 C-77.29215793 58.5741982 -80.39473529 50.41300298 -80.3125 39.125 C-80.30831055 38.33561035 -80.30412109 37.5462207 -80.29980469 36.73291016 C-80.18393821 30.74113406 -79.38625945 25.54027194 -77 20 C-76.74476563 19.33226563 -76.48953125 18.66453125 -76.2265625 17.9765625 C-71.46170021 6.91683627 -60.77046871 -2.80354631 -49.75 -7.375 C-32.62722811 -13.81002865 -14.68302172 -10.23661541 0 0 Z " fill="#FDFDFD" transform="translate(501,17)"/>
<path d="M0 0 C18.13748303 7.4030543 31.20742943 29.09411671 42.57226562 44.27148438 C43.56398945 45.58815048 44.57322382 46.89181177 45.59960938 48.18164062 C49.10722354 52.72460573 49.10722354 52.72460573 48.88452148 55.34082031 C47.45800577 58.65396344 44.03664168 59.46540111 40.875 60.75 C40.15828125 61.05115723 39.4415625 61.35231445 38.703125 61.66259766 C13.55691282 71.96833144 -15.42498922 73.11234588 -40.6496582 62.56274414 C-44.92770265 60.70791078 -49.04485686 58.84509542 -52.9375 56.25 C-52.33979603 53.23551093 -51.44793414 51.26373601 -49.6015625 48.81640625 C-49.11985596 48.17396973 -48.63814941 47.5315332 -48.1418457 46.86962891 C-47.62066162 46.19077637 -47.09947754 45.51192383 -46.5625 44.8125 C-46.02520264 44.10528809 -45.48790527 43.39807617 -44.93432617 42.66943359 C-39.82496785 35.99931953 -34.46382624 29.57651827 -28.9375 23.25 C-28.15503906 22.34378906 -27.37257813 21.43757813 -26.56640625 20.50390625 C-9.25059063 0.78728431 -9.25059063 0.78728431 0 0 Z " fill="#272424" transform="translate(299.9375,196.75)"/>
<path d="M0 0 C0.66 0.33 1.32 0.66 2 1 C-4.6 7.6 -11.2 14.2 -18 21 C-18.66 20.67 -19.32 20.34 -20 20 C-7.23404255 5.85106383 -7.23404255 5.85106383 0 0 Z " fill="#531D1D" transform="translate(289,202)"/>
<path d="M0 0 C0.66 0.33 1.32 0.66 2 1 C-5.26 8.26 -12.52 15.52 -20 23 C-20.66 22.67 -21.32 22.34 -22 22 C-17.20431159 16.4827381 -12.38727821 11.25736281 -6.796875 6.5390625 C-4.39391105 4.48087164 -2.20160831 2.27040857 0 0 Z " fill="#770606" transform="translate(412,192)"/>
<path d="M0 0 C0.66 0.33 1.32 0.66 2 1 C-2.62 5.62 -7.24 10.24 -12 15 C-12 10.91678393 -10.42111745 9.89782894 -7.6875 6.9375 C-6.88699219 6.05964844 -6.08648437 5.18179687 -5.26171875 4.27734375 C-3 2 -3 2 0 0 Z " fill="#D0D0D0" transform="translate(269,13)"/>
<path d="M0 0 C0.66 0.33 1.32 0.66 2 1 C0.54782324 2.50596108 -0.91192861 4.00462104 -2.375 5.5 C-3.18710938 6.3353125 -3.99921875 7.170625 -4.8359375 8.03125 C-7 10 -7 10 -9 10 C-7.61811547 6.78956118 -6.07578097 4.95063635 -3.375 2.75 C-2.74335937 2.22921875 -2.11171875 1.7084375 -1.4609375 1.171875 C-0.73777344 0.59179688 -0.73777344 0.59179688 0 0 Z " fill="#CECECE" transform="translate(87,14)"/>
</svg>
